# xmcd CD database file
#
# Track frame offsets:
#	150
#	18869
#	32155
#	54126
#	70461
#	92312
#	115820
#	135623
#	151910
#
# Disc length: 2333 seconds
#
# Revision: 0
# Processed by: cddbd v1.5PL3 Copyright (c) Steve Scherf et al.
# Submitted via: CDex 1.50
#
DISCID=65091b09
DTITLE=KGB - transportation
DYEAR=1999
DGENRE=Jazz
TTITLE0=maja
TTITLE1=the getaway song
TTITLE2=dr. j
TTITLE3=late rent
TTITLE4=butterfly train
TTITLE5=le kabooza
TTITLE6=road rage
TTITLE7=harmonic
TTITLE8=get on the street
EXTD=YEAR: 1999
EXTT0=
EXTT1=
EXTT2=
EXTT3=
EXTT4=
EXTT5=
EXTT6=
EXTT7=
EXTT8=
PLAYORDER=
